<svg width="21" height="21" viewBox="0 0 21 21" fill="none" xmlns="http://www.w3.org/2000/svg">
<path d="M4.54894 2.99295H4.54635C3.69232 2.99295 3 3.68527 3 4.5393V4.53931C3 5.39334 3.69232 6.08566 4.54635 6.08566H4.54894C5.40297 6.08566 6.09529 5.39334 6.09529 4.53931V4.5393C6.09529 3.68527 5.40297 2.99295 4.54894 2.99295Z" fill="white"/>
<path d="M7.54894 5.9859H7.54635C6.69232 5.9859 6 6.67823 6 7.53225V7.53226C6 8.38629 6.69232 9.07861 7.54635 9.07861H7.54894C8.40297 9.07861 9.09529 8.38629 9.09529 7.53226V7.53225C9.09529 6.67823 8.40297 5.9859 7.54894 5.9859Z" fill="white"/>
<path d="M7.54894 11.9718H7.54635C6.69232 11.9718 6 12.6641 6 13.5182V13.5182C6 14.3722 6.69232 15.0645 7.54635 15.0645H7.54894C8.40297 15.0645 9.09529 14.3722 9.09529 13.5182V13.5182C9.09529 12.6641 8.40297 11.9718 7.54894 11.9718Z" fill="white"/>
<path d="M16.5489 2.99295H16.5464C15.6923 2.99295 15 3.68527 15 4.5393V4.53931C15 5.39334 15.6923 6.08566 16.5464 6.08566H16.5489C17.403 6.08566 18.0953 5.39334 18.0953 4.53931V4.5393C18.0953 3.68527 17.403 2.99295 16.5489 2.99295Z" fill="white"/>
<path d="M4.54894 14.9647H4.54635C3.69232 14.9647 3 15.657 3 16.5111V16.5111C3 17.3651 3.69232 18.0574 4.54635 18.0574H4.54894C5.40297 18.0574 6.09529 17.3651 6.09529 16.5111V16.5111C6.09529 15.657 5.40297 14.9647 4.54894 14.9647Z" fill="white"/>
<path d="M13.5489 5.9859H13.5463C12.6923 5.9859 12 6.67823 12 7.53225V7.53226C12 8.38629 12.6923 9.07861 13.5463 9.07861H13.5489C14.403 9.07861 15.0953 8.38629 15.0953 7.53226V7.53225C15.0953 6.67823 14.403 5.9859 13.5489 5.9859Z" fill="white"/>
<path d="M10.5489 8.97885H10.5463C9.69232 8.97885 9 9.67118 9 10.5252V10.5252C9 11.3792 9.69232 12.0716 10.5463 12.0716H10.5489C11.403 12.0716 12.0953 11.3792 12.0953 10.5252V10.5252C12.0953 9.67118 11.403 8.97885 10.5489 8.97885Z" fill="white"/>
<path d="M16.5489 14.9647H16.5464C15.6923 14.9647 15 15.657 15 16.5111V16.5111C15 17.3651 15.6923 18.0574 16.5464 18.0574H16.5489C17.403 18.0574 18.0953 17.3651 18.0953 16.5111V16.5111C18.0953 15.657 17.403 14.9647 16.5489 14.9647Z" fill="white"/>
<path d="M13.5489 11.9718H13.5463C12.6923 11.9718 12 12.6641 12 13.5182V13.5182C12 14.3722 12.6923 15.0645 13.5463 15.0645H13.5489C14.403 15.0645 15.0953 14.3722 15.0953 13.5182V13.5182C15.0953 12.6641 14.403 11.9718 13.5489 11.9718Z" fill="white"/>
</svg>
