<?xml version="1.0" encoding="UTF-8"?>
<svg version="1.1" xmlns="http://www.w3.org/2000/svg" width="200" height="201">
<path d="M0 0 C2.69333446 2.16798626 5.28519651 4.4017639 7.84375 6.7265625 C8.47539062 7.27699219 9.10703125 7.82742187 9.7578125 8.39453125 C27.11537476 24.44433197 35.44658195 48.34957423 36.7890625 71.45800781 C37.35148118 94.78833993 27.58823133 118.68547683 11.84375 135.7265625 C10.18543923 137.07027412 8.51833231 138.40318438 6.84375 139.7265625 C6.05226562 140.54125 5.26078125 141.3559375 4.4453125 142.1953125 C1.59832678 144.96535266 -1.43693381 147.11939393 -4.78125 149.2265625 C-5.3995166 149.61674561 -6.0177832 150.00692871 -6.65478516 150.40893555 C-27.89980458 163.58084759 -52.89508669 166.72393451 -77.16210938 161.23144531 C-91.1713852 157.68453268 -104.29899489 150.2006071 -115.15625 140.7265625 C-115.15625 140.0665625 -115.15625 139.4065625 -115.15625 138.7265625 C-115.73761719 138.47777344 -116.31898437 138.22898438 -116.91796875 137.97265625 C-129.72327339 130.84369957 -137.33874604 112.14758668 -141.34375 98.8515625 C-148.20758047 73.4248221 -144.79068094 49.81562131 -132.65625 26.6640625 C-120.68902877 6.6577919 -100.65018067 -8.74904785 -78.09375 -14.7109375 C-51.02614904 -21.38063365 -22.69450898 -16.34678741 0 0 Z " fill="#819ED0" transform="translate(154.15625,27.2734375)"/>
<path d="M0 0 C2.69333446 2.16798626 5.28519651 4.4017639 7.84375 6.7265625 C8.47539062 7.27699219 9.10703125 7.82742187 9.7578125 8.39453125 C27.11537476 24.44433197 35.44658195 48.34957423 36.7890625 71.45800781 C37.35148118 94.78833993 27.58823133 118.68547683 11.84375 135.7265625 C10.18543923 137.07027412 8.51833231 138.40318438 6.84375 139.7265625 C6.05226562 140.54125 5.26078125 141.3559375 4.4453125 142.1953125 C1.59832678 144.96535266 -1.43693381 147.11939393 -4.78125 149.2265625 C-5.3995166 149.61674561 -6.0177832 150.00692871 -6.65478516 150.40893555 C-27.89980458 163.58084759 -52.89508669 166.72393451 -77.16210938 161.23144531 C-91.1713852 157.68453268 -104.29899489 150.2006071 -115.15625 140.7265625 C-115.15625 140.0665625 -115.15625 139.4065625 -115.15625 138.7265625 C-115.73761719 138.47777344 -116.31898437 138.22898438 -116.91796875 137.97265625 C-129.72327339 130.84369957 -137.33874604 112.14758668 -141.34375 98.8515625 C-148.20758047 73.4248221 -144.79068094 49.81562131 -132.65625 26.6640625 C-120.68902877 6.6577919 -100.65018067 -8.74904785 -78.09375 -14.7109375 C-51.02614904 -21.38063365 -22.69450898 -16.34678741 0 0 Z M-116.5625 16.25390625 C-131.95526301 34.20334394 -139.55298117 56.01123111 -138.15625 79.7265625 C-135.68604146 103.65670777 -124.36424771 124.33015623 -105.859375 139.625 C-87.96855694 152.89302279 -66.11075909 159.59236966 -43.86132812 156.39697266 C-19.56421825 152.24461479 0.20099327 140.72376012 14.84375 120.7265625 C27.28888266 102.87493779 31.55180121 80.49961741 28.46142578 59.07617188 C25.60929571 44.36248588 19.69373556 31.09687192 9.84375 19.7265625 C9.25078125 18.99050781 8.6578125 18.25445312 8.046875 17.49609375 C-4.72478488 2.16482434 -24.34085615 -7.86177727 -44.15625 -10.2734375 C-71.72510839 -11.88023113 -97.08458918 -4.2042241 -116.5625 16.25390625 Z " fill="#D2D3D4" transform="translate(154.15625,27.2734375)"/>
<path d="M0 0 C14.17756236 4.85154173 24.65273236 21.303144 31.13183594 34.14111328 C35.23797563 42.93305581 37.75529784 52.3959913 39 62 C39.20109375 63.35931641 39.20109375 63.35931641 39.40625 64.74609375 C42.25203392 88.57953411 33.43049212 112.85249217 18.875 131.5 C16.19191691 134.83993746 13.35491455 137.34869975 10 140 C9.20851563 140.8146875 8.41703125 141.629375 7.6015625 142.46875 C4.75457678 145.23879016 1.71931619 147.39283143 -1.625 149.5 C-2.2432666 149.89018311 -2.8615332 150.28036621 -3.49853516 150.68237305 C-22.1201898 162.22779893 -45.72899502 167.49760117 -67.33984375 162.4375 C-67.88769531 162.293125 -68.43554688 162.14875 -69 162 C-69 161.67 -69 161.34 -69 161 C-67.88310791 161.01571045 -67.88310791 161.01571045 -66.74365234 161.03173828 C-35.27667921 161.41613458 -10.92746664 157.24439469 12.6875 134.625 C29.70546032 117.06868592 36.75644163 94.97490852 36.45996094 70.94189453 C36.21567838 62.97556902 35.26224486 55.66649646 33 48 C32.7834375 47.11828125 32.566875 46.2365625 32.34375 45.328125 C28.08546572 29.00470192 16.8694542 16.39041793 5 5 C3.3298815 3.33679233 1.66216827 1.67115296 0 0 Z " fill="#808081" transform="translate(151,27)"/>
<path d="M0 0 C2.1640625 0.59765625 2.1640625 0.59765625 4.7265625 2.72265625 C6.56465249 6.39883622 6.81688518 8.53564847 6.1640625 12.59765625 C3.7265625 15.47265625 3.7265625 15.47265625 1.1640625 17.59765625 C0.8340625 17.92765625 0.5040625 18.25765625 0.1640625 18.59765625 C-4.12847767 19.09294935 -6.14961342 19.09001918 -9.7109375 16.53515625 C-12.25327552 13.02074781 -12.8359375 10.92265054 -12.8359375 6.59765625 C-9.98560762 0.18441402 -6.54211979 -0.92697789 0 0 Z " fill="#FAFBFD" transform="translate(66.8359375,128.40234375)"/>
<path d="M0 0 C2.625 2 2.625 2 4 5 C4.19784674 8.88871181 4.11013491 12.52206964 1.71484375 15.7109375 C-1.46679416 18.10260153 -5.1099489 18.36170651 -9 18 C-11.80665387 15.83653764 -13.424034 14.15193199 -15 11 C-15.43023798 7.12785818 -15.31669086 5.47503629 -13.125 2.1875 C-9.11689366 -1.93849182 -5.33440841 -1.34306027 0 0 Z " fill="#FAFBFD" transform="translate(124,74)"/>
<path d="M0 0 C4.529087 0.51272683 6.26137669 2.04005127 9.3125 5.375 C10.4375 8.8125 10.4375 8.8125 10.3125 12.375 C7.37579114 17.84335443 7.37579114 17.84335443 4.3125 19.375 C1.30114195 19.72056568 -0.78111171 19.95294337 -3.6875 19.375 C-7.25102884 16.33115245 -8.50208415 14.43187034 -9.3125 9.8125 C-8.53436049 5.53273271 -6.98420019 4.10884894 -3.6875 1.375 C-2.6875 0.375 -2.6875 0.375 0 0 Z " fill="#FBFCFD" transform="translate(99.6875,90.625)"/>
<path d="M0 0 C3.4375 1.9375 3.4375 1.9375 6 5 C6.86123442 8.19639351 6.86678794 10.8044418 6 14 C3.72305606 17.35345825 0.97264445 18.79736574 -3 19.625 C-6.96947173 18.79802672 -9.72905187 17.35604279 -12 14 C-12.80895451 10.8272919 -12.75893972 8.17949748 -12 5 C-8.67829664 0.0677738 -5.83102014 -1.02298599 0 0 Z " fill="#FBFCFD" transform="translate(85,73)"/>
<path d="M0 0 C2.75329021 1.79562405 4.52627461 3.05254922 6 6 C6.41314256 10.6478538 5.78987316 13.24440152 3 17 C-0.50054938 18.75027469 -4.19011483 18.68972059 -8 18 C-10.64015065 16.24999189 -11.3517964 14.87106433 -13 12 C-13.73490789 7.99883483 -13.38814018 6.58221026 -11.125 3.1875 C-7.57218626 -0.46980826 -5.03088285 -0.426346 0 0 Z " fill="#FCFCFD" transform="translate(122,110)"/>
<path d="M0 0 C5.54361702 3.28510638 5.54361702 3.28510638 6.515625 6.9375 C6.71870236 10.76695879 6.22165721 12.65273704 4.125 15.9375 C1.64918169 18.34050013 0.65611423 18.91052988 -2.75 19.375 C-6.22506066 18.97403146 -8.26904217 18.08946084 -10.8515625 15.69140625 C-12.73764431 12.91360549 -12.81662528 10.4502034 -12.5859375 7.16015625 C-11.0091498 1.34706559 -5.7543339 -1.19881956 0 0 Z " fill="#FCFCFD" transform="translate(140,128)"/>
<path d="M0 0 C2.75329021 1.79562405 4.52627461 3.05254922 6 6 C6.03806058 10.01158463 5.89721746 13.76632599 3.5 17.0625 C-0.39107075 18.52165153 -3.91878074 18.89322058 -8 18 C-10.63117382 16.23577976 -11.35025914 14.87374214 -13 12 C-13.73490789 7.99883483 -13.38814018 6.58221026 -11.125 3.1875 C-7.57218626 -0.46980826 -5.03088285 -0.426346 0 0 Z " fill="#FCFCFD" transform="translate(67,55)"/>
<path d="M0 0 C3.55247432 0.87379409 4.94828114 2.4927342 6.9375 5.4765625 C7.63619998 8.31717881 7.630647 10.63523266 6.9375 13.4765625 C5 16.4765625 5 16.4765625 1.9375 18.4765625 C-2.36563323 19.34178324 -5.77557798 19.19849437 -9.625 17.0390625 C-11.78443187 13.18964048 -11.92772074 9.77969573 -11.0625 5.4765625 C-8.0958762 0.93391981 -5.25883 -0.3784764 0 0 Z " fill="#FCFCFD" transform="translate(139.0625,54.5234375)"/>
<path d="M0 0 C4.6 2.2 4.6 2.2 6 5 C6.68288206 11.94263424 6.68288206 11.94263424 4.0625 16 C0.48008358 18.33953725 -1.69676183 18.74316342 -5.90625 18.4765625 C-8 18 -8 18 -10.5625 16 C-12.40251016 12.15997879 -12.96007379 9.17716314 -12 5 C-8.60369897 0.05992578 -5.86842367 -0.83834624 0 0 Z " fill="#FCFDFE" transform="translate(85,110)"/>
<path d="M0 0 C0.33 0 0.66 0 1 0 C0.97905273 0.97646484 0.95810547 1.95292969 0.93652344 2.95898438 C0.86282644 6.66406946 0.81774172 10.36909359 0.78027344 14.07470703 C0.76044732 15.66303481 0.73337779 17.25129259 0.69824219 18.83935547 C0.39227715 33.04873159 1.86023285 46.58768252 8.75 59.3125 C9.26759888 60.30092896 9.26759888 60.30092896 9.7956543 61.30932617 C21.37084377 82.86992313 39.97399848 98.20585209 63.375 105.4375 C65.24637236 105.97122076 67.12007598 106.49722962 69 107 C69 107.33 69 107.66 69 108 C53.28951129 107.21447556 38.68802902 98.06633971 27 88 C27 87.34 27 86.68 27 86 C26.41863281 85.75121094 25.83726563 85.50242187 25.23828125 85.24609375 C12.43297661 78.11713707 4.81750396 59.42102418 0.8125 46.125 C-2.85814672 32.52726012 -6.66905057 13.33810114 0 0 Z " fill="#818181" transform="translate(12,80)"/>
<path d="M0 0 C0.69287109 0.00451172 1.38574219 0.00902344 2.09960938 0.01367188 C3.79561068 0.02536844 5.49156703 0.04330076 7.1875 0.0625 C7.1875 0.3925 7.1875 0.7225 7.1875 1.0625 C5.69863281 1.20945312 5.69863281 1.20945312 4.1796875 1.359375 C-15.89071435 3.49484186 -33.55303874 9.57546255 -48.8125 23.0625 C-49.47121094 23.55621094 -50.12992188 24.04992187 -50.80859375 24.55859375 C-64.16887568 34.90810792 -71.98754288 52.37465058 -76.8125 68.0625 C-77.1425 68.0625 -77.4725 68.0625 -77.8125 68.0625 C-76.68269596 48.47923002 -62.75618092 32.38582692 -49.125 19.52734375 C-38.56442449 10.36541589 -26.35763051 4.40161992 -12.8125 1.0625 C-12.02746094 0.8665625 -11.24242188 0.670625 -10.43359375 0.46875 C-6.95110499 -0.07100981 -3.51290075 -0.04370116 0 0 Z " fill="#8C8C8C" transform="translate(90.8125,10.9375)"/>
<path d="M0 0 C14.17385425 4.85027282 24.64975494 21.29722664 31.12744141 34.13232422 C34.90922973 42.22708658 37.8478656 51.02407056 38 60 C37.34 60.66 36.68 61.32 36 62 C35.81824219 61.10539062 35.63648438 60.21078125 35.44921875 59.2890625 C30.75631049 36.71497047 21.6242865 20.95335117 5 5 C3.3298815 3.33679233 1.66216827 1.67115296 0 0 Z " fill="#8E8E8E" transform="translate(151,27)"/>
<path d="M0 0 C0.66 0.66 1.32 1.32 2 2 C-15.33608385 9.74916822 -35.41303441 12.89821211 -54 8 C-54 7.67 -54 7.34 -54 7 C-52.88310791 7.01571045 -52.88310791 7.01571045 -51.74365234 7.03173828 C-25.23813439 7.3771269 -25.23813439 7.3771269 0 0 Z " fill="#868686" transform="translate(136,181)"/>
<path d="M0 0 C0.66 0.33 1.32 0.66 2 1 C1.05640625 2.14662109 1.05640625 2.14662109 0.09375 3.31640625 C-9.16609887 14.80668985 -15.95858051 26.72209035 -20 41 C-20.33 41 -20.66 41 -21 41 C-20.10836538 25.54499998 -10.5162314 10.87772685 0 0 Z " fill="#838383" transform="translate(34,38)"/>
<path d="M0 0 C3.37529245 1.24445565 6.1432666 2.65760149 9.0625 4.75 C18.40489685 11.08121109 28.14626423 15.02397568 39 18 C39 18.33 39 18.66 39 19 C24.47675768 18.27383788 10.77285958 10.47400417 0 1 C0 0.67 0 0.34 0 0 Z " fill="#7B7B7B" transform="translate(42,169)"/>
<path d="M0 0 C0.33 0 0.66 0 1 0 C0.89055285 4.45885926 0.75982334 8.91684156 0.625 13.375 C0.5940625 14.64601563 0.563125 15.91703125 0.53125 17.2265625 C0.49257812 18.43828125 0.45390625 19.65 0.4140625 20.8984375 C0.3826416 22.01911621 0.3512207 23.13979492 0.31884766 24.29443359 C0 27 0 27 -2 29 C-4.82018935 20.53943196 -2.72133562 10.53129112 -1 2 C-0.67 1.34 -0.34 0.68 0 0 Z " fill="#8B8B8B" transform="translate(12,80)"/>
<path d="M0 0 C3.59527129 3.59527129 2.86227998 9.11667753 3 14 C2.69504447 24.30495553 2.69504447 24.30495553 0 27 C0 18.09 0 9.18 0 0 Z " fill="#787979" transform="translate(188,87)"/>
<path d="M0 0 C5 5 10 10 15 15 C14.34 15.66 13.68 16.32 13 17 C12.7525 16.38125 12.505 15.7625 12.25 15.125 C11.20356755 12.88620476 11.20356755 12.88620476 9.1875 12.15625 C6.38783458 10.67642685 4.80482605 8.77229705 2.75 6.375 C2.04359375 5.55773437 1.3371875 4.74046875 0.609375 3.8984375 C0.07828125 3.27195313 -0.4528125 2.64546875 -1 2 C-0.67 1.34 -0.34 0.68 0 0 Z " fill="#8D8D8D" transform="translate(28,153)"/>
<path d="M0 0 C2.69097937 2.69097937 3.23696526 5.67434224 4.1875 9.25 C4.37763672 9.90613281 4.56777344 10.56226562 4.76367188 11.23828125 C5.91289837 15.50441355 6.04537743 18.711955 5 23 C4.67 23 4.34 23 4 23 C3.70996094 21.62328125 3.70996094 21.62328125 3.4140625 20.21875 C1.72023275 12.17063055 1.72023275 12.17063055 -0.25 4.1875 C-0.4975 3.135625 -0.745 2.08375 -1 1 C-0.67 0.67 -0.34 0.34 0 0 Z " fill="#8E8E8F" transform="translate(183,66)"/>
<path d="M0 0 C5.36914588 4.55563893 9.15978018 10.587454 12 17 C11.6953125 19.37109375 11.6953125 19.37109375 11 21 C10.54109375 20.13117188 10.0821875 19.26234375 9.609375 18.3671875 C8.68898437 16.63855469 8.68898437 16.63855469 7.75 14.875 C7.14671875 13.73804688 6.5434375 12.60109375 5.921875 11.4296875 C4.0419956 7.96281034 4.0419956 7.96281034 1.765625 4.6953125 C0 2 0 2 0 0 Z " fill="#808080" transform="translate(171,46)"/>
<path d="M0 0 C3.55591802 1.30908132 6.55490999 2.87260441 9.6875 5 C10.83798828 5.7734375 10.83798828 5.7734375 12.01171875 6.5625 C14 8 14 8 16 10 C15.01 10.495 15.01 10.495 14 11 C11.50390625 9.70703125 11.50390625 9.70703125 8.5625 7.8125 C7.59441406 7.20019531 6.62632813 6.58789062 5.62890625 5.95703125 C3.18158199 4.1351747 1.65741186 2.53387373 0 0 Z " fill="#828282" transform="translate(42,169)"/>
</svg>
